# xmcd
#
# Track frame offsets: 
#        150
#        15350
#        34723
#        56804
#        77666
#        95424
#        111297
#        132680
#        151546
#        169744
#        185237
#        200266
#        215788
#        235535
#        258651
#        274421
#        290819
#        305888
#
# Disc length: 4319 seconds
#
# Revision: 1
# Processed by: cddbd v1.5.2PL0 Copyright (c) Steve Scherf et al.
# Submitted via: ExactAudioCopyFreeDBPlugin 1.0
#
DISCID=0e10dd12
DTITLE=Dennis Gruenling and Jump Time - That's Right
DYEAR=2001
DGENRE=Blues
TTITLE0=1313 Stomp
TTITLE1=That's Right
TTITLE2=Mississippi Saxophone
TTITLE3=I Can't Believe You're In Love With Me
TTITLE4=Blue Beat Boogie
TTITLE5=Buckle Up
TTITLE6=I'm Comin' Back Home
TTITLE7=I Don't Get It
TTITLE8=Boiling Point
TTITLE9=More Of What You Got
TTITLE10=I Don't Believe
TTITLE11=Wonderful Time
TTITLE12=N.C. Groove
TTITLE13=You Brought The Blues On Yourself
TTITLE14=Blues Up and Down
TTITLE15=They Ain't Gonna Tell It Right
TTITLE16=Person To Person
TTITLE17=One Of A Kind
EXTD=
EXTT0=
EXTT1=
EXTT2=
EXTT3=
EXTT4=
EXTT5=
EXTT6=
EXTT7=
EXTT8=
EXTT9=
EXTT10=
EXTT11=
EXTT12=
EXTT13=
EXTT14=
EXTT15=
EXTT16=
EXTT17=
PLAYORDER=
